<?xml version="1.0" standalone="no"?>
<!DOCTYPE svg PUBLIC "-//W3C//DTD SVG 20010904//EN"
 "http://www.w3.org/TR/2001/REC-SVG-20010904/DTD/svg10.dtd">
<svg version="1.0" xmlns="http://www.w3.org/2000/svg"
 width="500.000000pt" height="500.000000pt" viewBox="0 0 500.000000 500.000000"
 preserveAspectRatio="xMidYMid meet">
<metadata>
Created by potrace 1.16, written by Peter Selinger 2001-2019
</metadata>
<g transform="translate(0.000000,500.000000) scale(0.100000,-0.100000)"
fill="#000000" stroke="none">
<path d="M0 2500 l0 -2500 2500 0 2500 0 0 2500 0 2500 -2500 0 -2500 0 0
-2500z m2089 855 c92 -73 333 -312 391 -390 15 -20 15 -20 -15 0 -16 10 -139
90 -273 176 l-243 156 -61 99 c-33 54 -63 105 -66 112 -10 28 160 -71 267
-153z m479 -309 c12 -20 22 -38 22 -41 0 -10 -118 83 -255 200 -232 199 -234
210 -10 41 136 -101 229 -178 243 -200z m-457 101 c72 -35 474 -315 466 -324
-2 -1 -102 42 -223 96 l-219 99 -53 69 c-60 77 -76 103 -65 103 4 0 47 -20 94
-43z m472 -204 l57 -44 72 50 c40 27 74 49 76 47 3 -4 -13 -40 -83 -191 l-37
-80 -29 69 c-16 38 -51 94 -77 125 -84 98 -81 101 21 24z m267 -58 c0 -54 -21
-90 -75 -128 -30 -21 -55 -35 -55 -31 0 6 67 190 90 249 l13 30 13 -50 c8 -27
14 -59 14 -70z m-466 -20 c107 -49 190 -91 183 -93 -7 -1 -79 10 -162 25
l-150 28 -33 50 c-47 71 -56 88 -44 84 6 -2 98 -44 206 -94z m461 -160 l7 -54
-72 -80 c-65 -72 -80 -83 -157 -116 -47 -19 -88 -34 -90 -31 -2 2 30 32 73 66
65 54 81 73 105 129 19 43 44 79 72 103 23 21 45 38 49 38 4 0 10 -25 13 -55z
m-531 -10 c28 -8 77 -17 110 -21 32 -3 54 -9 50 -14 -25 -23 -242 -110 -323
-129 -51 -11 -96 -21 -101 -21 -11 0 192 199 204 200 5 0 32 -7 60 -15z m222
-160 c-5 -15 -113 -37 -146 -29 -14 3 -41 11 -60 17 l-35 11 120 57 120 58 3
-51 c2 -28 1 -56 -2 -63z"/>
</g>
</svg>
